<svg version="1.1" xmlns="http://www.w3.org/2000/svg" xmlns:xlink="http://www.w3.org/1999/xlink" width="500" height="500"><g data-paper-data="{&quot;description&quot;:&quot;Logo for Bbgram\n===============\n\nThis logo was generated by MarkMaker at http://emblemmatic.org/markmaker/ and may be composed of elements designed by others.\n\nThe font is Source Sans Pro Semibold Italic designed by Paul D. Hunt and released under the OFL license via Google Fonts: https://www.google.com/fonts/specimen/Source%20Sans%20Pro. The font includes this copyright statement: Copyright 2010, 2012 Adobe Systems Incorporated (http://www.adobe.com/), with Reserved Font Name 'Source'. All Rights Reserved. Source is a trademark of Adobe Systems Incorporated in the United States and/or other countries.\n\nMarkMaker uses semantic data from the Princeton University WordNet database http://wordnet.princeton.edu and font descriptions from Google Fonts https://www.google.com/fonts.&quot;}" fill="none" fill-rule="nonzero" stroke="none" stroke-width="none" stroke-linecap="butt" stroke-linejoin="miter" stroke-miterlimit="10" stroke-dasharray="none" stroke-dashoffset="0" font-family="none" font-weight="none" font-size="none" text-anchor="none" style="mix-blend-mode: normal"><path d="M50,442.51956v-385.03912h400v385.03912z" stroke="#558181" stroke-width="3.5" stroke-dasharray=""></path><g data-paper-data="{&quot;elementType&quot;:&quot;logo&quot;}" stroke="#000000" stroke-width="1.75" stroke-dasharray="3.5855834,1.3445937749999999"><g data-paper-data="{&quot;elementType&quot;:&quot;text&quot;}"><g data-paper-data="{&quot;baseline&quot;:70.60000000000001,&quot;elementType&quot;:&quot;row&quot;}"><g data-paper-data="{&quot;baselineProportion&quot;:0.7640692640692642,&quot;fontSize&quot;:100,&quot;baseline&quot;:70.60000000000001,&quot;elementType&quot;:&quot;word&quot;}"><path d="M94.84897,331.94289h16.65338c5.66924,0 10.20167,1.07775 13.59731,3.23324c3.39564,2.15549 5.09345,5.41825 5.09345,9.78829c0,1.83069 -0.33956,3.52851 -1.01869,5.09345c-0.67913,1.56495 -1.59447,2.96749 -2.74604,4.20764c-1.15156,1.24015 -2.49505,2.30313 -4.03047,3.18894c-1.53542,0.88582 -3.18894,1.53542 -4.96058,1.9488l-0.08858,0.35433c3.12989,0.76771 5.62494,2.06691 7.48516,3.8976c1.86022,1.83069 2.79033,4.31098 2.79033,7.44087c0,3.30705 -0.63484,6.15644 -1.90451,8.54814c-1.26967,2.39171 -3.01178,4.34051 -5.22633,5.8464c-2.21455,1.50589 -4.81294,2.61316 -7.7952,3.32182c-2.98225,0.70865 -6.18596,1.06298 -9.61113,1.06298h-19.75374l11.51563,-57.9325M103.08708,382.43452c4.78342,0 8.53338,-0.88582 11.24989,-2.65745c2.71651,-1.77164 4.07476,-4.51767 4.07476,-8.23811c0,-2.65745 -0.94487,-4.75389 -2.83462,-6.28931c-1.88975,-1.53542 -4.69484,-2.30313 -8.41527,-2.30313h-8.94676l-3.8976,19.488zM106.63035,356.21431c4.78342,0 8.2824,-0.88582 10.49694,-2.65745c2.21455,-1.77164 3.32182,-4.13382 3.32182,-7.08654c0,-2.24407 -0.88582,-3.98618 -2.65745,-5.22633c-1.77164,-1.24015 -4.51767,-1.86022 -8.23811,-1.86022h-6.55505l-3.45469,16.83054h7.08654" data-paper-data="{&quot;elementType&quot;:&quot;letter&quot;,&quot;baseline&quot;:65.4,&quot;baselineProportion&quot;:1,&quot;fontSize&quot;:100}"></path><path d="M143.12605,389.8754l12.57862,-62.53875h9.47825l-3.10036,15.41323l-2.12596,8.32669h0.17716c2.06691,-1.65353 4.25193,-3.02655 6.55505,-4.11905c2.30313,-1.09251 4.66531,-1.63876 7.08654,-1.63876c3.8976,0 6.93891,1.34349 9.12393,4.03047c2.18502,2.68698 3.27753,6.62887 3.27753,11.82567c0,4.19287 -0.6496,8.09047 -1.9488,11.6928c-1.2992,3.60233 -3.04131,6.74698 -5.22633,9.43396c-2.18502,2.68698 -4.66531,4.79818 -7.44087,6.3336c-2.77556,1.53542 -5.66924,2.30313 -8.68102,2.30313c-2.18502,0 -4.11905,-0.54625 -5.80211,-1.63876c-1.68305,-1.09251 -3.02655,-2.58364 -4.03047,-4.47338h-0.17716l-1.86022,5.04916h-7.88378M169.87776,353.11395c-1.71258,0 -3.5728,0.51673 -5.58065,1.55018c-2.00785,1.03345 -3.83854,2.61316 -5.49207,4.73913l-3.72044,18.42502c0.94487,1.88975 2.03738,3.248 3.27753,4.07476c1.24015,0.82676 2.53935,1.24015 3.8976,1.24015c1.83069,0 3.60233,-0.54625 5.31491,-1.63876c1.71258,-1.09251 3.21847,-2.58364 4.51767,-4.47338c1.2992,-1.88975 2.34742,-4.08953 3.14465,-6.59934c0.79724,-2.50982 1.19585,-5.18204 1.19585,-8.01665c0,-3.18894 -0.59055,-5.53636 -1.77164,-7.04225c-1.18109,-1.50589 -2.77556,-2.25884 -4.78342,-2.25884z" data-paper-data="{&quot;elementType&quot;:&quot;letter&quot;,&quot;baseline&quot;:70.60000000000001,&quot;baselineProportion&quot;:0.9832869080779943,&quot;fontSize&quot;:100}"></path><path d="M243.13491,346.38173l-8.85818,44.11374c-1.24015,6.14167 -3.72044,10.79222 -7.44087,13.95163c-3.72044,3.15942 -8.47433,4.73913 -14.26167,4.73913c-2.77556,0 -5.50684,-0.53149 -8.19382,-1.59447c-2.68698,-1.06298 -5.18204,-2.53935 -7.48516,-4.42909l4.25193,-6.37789c1.65353,1.35825 3.45469,2.49505 5.40349,3.4104c1.9488,0.91535 4.04524,1.37302 6.28931,1.37302c3.30705,0 5.96451,-0.95964 7.97236,-2.87891c2.00785,-1.91927 3.48422,-4.62102 4.42909,-8.10524l2.12596,-8.06094h-0.26575c-2.06691,1.9488 -4.23716,3.51374 -6.51076,4.69484c-2.2736,1.18109 -4.7096,1.77164 -7.308,1.77164c-3.66138,0 -6.68793,-1.28444 -9.07964,-3.85331c-2.39171,-2.56887 -3.58756,-6.39265 -3.58756,-11.47134c0,-3.95665 0.63484,-7.64756 1.90451,-11.07273c1.26967,-3.42516 2.96749,-6.42218 5.09345,-8.99105c2.12596,-2.56887 4.56196,-4.59149 7.308,-6.06785c2.74604,-1.47636 5.59542,-2.21455 8.54814,-2.21455c2.12596,0 4.06,0.54625 5.80211,1.63876c1.74211,1.09251 3.0856,2.58364 4.03047,4.47338h0.26575l1.86022,-5.04916h7.70662M216.73753,381.1058c1.71258,0 3.58756,-0.51673 5.62494,-1.55018c2.03738,-1.03345 3.91236,-2.70175 5.62494,-5.00487l3.27753,-16.12189c-1.00393,-1.88975 -2.12596,-3.248 -3.36611,-4.07476c-1.24015,-0.82676 -2.53935,-1.24015 -3.8976,-1.24015c-1.77164,0 -3.46945,0.51673 -5.09345,1.55018c-1.624,1.03345 -3.07084,2.436 -4.34051,4.20764c-1.26967,1.77164 -2.2736,3.82378 -3.01178,6.15644c-0.73818,2.33265 -1.10727,4.79818 -1.10727,7.39658c0,2.95273 0.57578,5.13774 1.72735,6.55505c1.15156,1.41731 2.67222,2.12596 4.56196,2.12596z" data-paper-data="{&quot;elementType&quot;:&quot;letter&quot;,&quot;baseline&quot;:50.300000000000004,&quot;baselineProportion&quot;:0.6976421636615813,&quot;fontSize&quot;:100}"></path><path d="M263.86305,346.38173h7.70662l-0.79724,8.41527h0.35433c1.71258,-2.71651 3.72044,-4.97534 6.02356,-6.77651c2.30313,-1.80116 4.78342,-2.70175 7.44087,-2.70175c1.71258,0 3.15942,0.26575 4.34051,0.79724l-3.18894,8.32669c-0.53149,-0.29527 -1.15156,-0.4872 -1.86022,-0.57578c-0.70865,-0.08858 -1.44684,-0.13287 -2.21455,-0.13287c-2.06691,0 -4.10429,0.79724 -6.11214,2.39171c-2.00785,1.59447 -3.8976,4.07476 -5.66924,7.44087l-5.13774,26.3088h-9.56683z" data-paper-data="{&quot;elementType&quot;:&quot;letter&quot;,&quot;baseline&quot;:50.300000000000004,&quot;baselineProportion&quot;:1,&quot;fontSize&quot;:100}"></path><path d="M295.66392,375.08223c0,-4.13382 0.6496,-8.01665 1.9488,-11.64851c1.2992,-3.63185 3.04131,-6.79127 5.22633,-9.47825c2.18502,-2.68698 4.68007,-4.79818 7.48516,-6.3336c2.80509,-1.53542 5.71353,-2.30313 8.72531,-2.30313c2.12596,0 4.07476,0.54625 5.8464,1.63876c1.77164,1.09251 3.15942,2.58364 4.16334,4.47338h0.17716l1.86022,-5.04916h7.61804l-8.68102,43.49367h-7.7952l0.44291,-6.02356h-0.26575c-2.06691,2.12596 -4.35527,3.83854 -6.86509,5.13774c-2.50982,1.2992 -5.00487,1.9488 -7.48516,1.9488c-3.83854,0 -6.86509,-1.35825 -9.07964,-4.07476c-2.21455,-2.71651 -3.32182,-6.64364 -3.32182,-11.78138M311.96297,383.14318c1.88975,0 3.82378,-0.56102 5.80211,-1.68305c1.97833,-1.12204 3.85331,-3.01178 5.62494,-5.66924l3.54327,-17.36203c-1.00393,-1.88975 -2.14073,-3.248 -3.4104,-4.07476c-1.26967,-0.82676 -2.58364,-1.24015 -3.94189,-1.24015c-1.83069,0 -3.60233,0.54625 -5.31491,1.63876c-1.71258,1.09251 -3.21847,2.58364 -4.51767,4.47338c-1.2992,1.88975 -2.33265,4.08953 -3.10036,6.59934c-0.76771,2.50982 -1.15156,5.15251 -1.15156,7.92807c0,3.18894 0.57578,5.55113 1.72735,7.08654c1.15156,1.53542 2.73127,2.30313 4.73913,2.30313z" data-paper-data="{&quot;elementType&quot;:&quot;letter&quot;,&quot;baseline&quot;:50.300000000000004,&quot;baselineProportion&quot;:0.9766990291262135,&quot;fontSize&quot;:100}"></path><path d="M359.44282,346.38173h7.70662l-0.44291,6.11214h0.35433c2.24407,-1.9488 4.57673,-3.63185 6.99796,-5.04916c2.42124,-1.41731 4.81294,-2.12596 7.17513,-2.12596c1.65353,0 3.07084,0.20669 4.25193,0.62007c1.18109,0.41338 2.17025,0.9744 2.96749,1.68305c0.79724,0.70865 1.41731,1.55018 1.86022,2.52458c0.44291,0.9744 0.78247,2.05215 1.01869,3.23324c2.5984,-2.48029 5.16727,-4.44385 7.70662,-5.89069c2.53935,-1.44684 4.99011,-2.17025 7.35229,-2.17025c3.60233,0 6.21549,0.94487 7.83949,2.83462c1.624,1.88975 2.436,4.60625 2.436,8.14953c0,1.00393 -0.05905,1.97833 -0.17716,2.9232c-0.11811,0.94487 -0.29527,2.00785 -0.53149,3.18894l-5.49207,27.46036h-9.56683l5.31491,-26.22021c0.23622,-1.00393 0.41338,-1.86022 0.53149,-2.56887c0.11811,-0.70865 0.17716,-1.38778 0.17716,-2.03738c0,-3.72044 -1.77164,-5.58065 -5.31491,-5.58065c-1.12204,0 -2.56887,0.53149 -4.34051,1.59447c-1.77164,1.06298 -3.77949,2.77556 -6.02356,5.13774l-5.93498,29.6749h-9.47825l5.22633,-26.22021c0.23622,-1.00393 0.41338,-1.86022 0.53149,-2.56887c0.11811,-0.70865 0.17716,-1.38778 0.17716,-2.03738c0,-3.72044 -1.74211,-5.58065 -5.22633,-5.58065c-1.18109,0 -2.65745,0.53149 -4.42909,1.59447c-1.77164,1.06298 -3.74996,2.77556 -5.93498,5.13774l-5.8464,29.6749h-9.56683z" data-paper-data="{&quot;elementType&quot;:&quot;letter&quot;,&quot;baseline&quot;:50.300000000000004,&quot;baselineProportion&quot;:1,&quot;fontSize&quot;:100}"></path></g></g></g></g><g data-paper-data="{&quot;elementType&quot;:&quot;emblem&quot;}" stroke="#000000" stroke-width="1.79279" stroke-dasharray="3.5855834,1.3445937749999999"><g data-paper-data="{&quot;baselineProportion&quot;:0.9819819819819819,&quot;fontSize&quot;:100,&quot;baseline&quot;:65.4,&quot;elementType&quot;:&quot;word&quot;}"><path d="M159.09833,90.81377h61.36271c20.88943,0 37.5901,3.97117 50.102,11.9135c12.5119,7.94234 18.76785,19.96464 18.76785,36.06691c0,6.74555 -1.25119,13.0015 -3.75357,18.76785c-2.50238,5.76635 -5.87515,10.93431 -10.11832,15.50388c-4.24317,4.56956 -9.19353,8.48633 -14.85108,11.75031c-5.65755,3.26397 -11.75031,5.65755 -18.27825,7.18074l-0.3264,1.30559c11.53271,2.82878 20.72623,7.61594 27.58058,14.36149c6.85435,6.74555 10.28152,15.88467 10.28152,27.41738c0,12.1855 -2.33918,22.68462 -7.01754,31.49735c-4.67836,8.81273 -11.09751,15.99347 -19.25745,21.54223c-8.15993,5.54876 -17.73426,9.62872 -28.72297,12.2399c-10.98871,2.61118 -22.79342,3.91677 -35.41412,3.91677h-72.78662l42.43166,-213.46389M189.45328,276.86028c17.62546,0 31.44295,-3.26397 41.45247,-9.79192c10.00952,-6.52795 15.01428,-16.64627 15.01428,-30.35496c0,-9.79192 -3.48157,-17.51666 -10.44472,-23.17421c-6.96314,-5.65755 -17.29906,-8.48633 -31.00775,-8.48633h-32.96614l-14.36149,71.80743zM202.50918,180.24666c17.62546,0 30.51816,-3.26397 38.67809,-9.79192c8.15993,-6.52795 12.2399,-15.23188 12.2399,-26.11179c0,-8.26873 -3.26397,-14.68788 -9.79192,-19.25745c-6.52795,-4.56956 -16.64627,-6.85435 -30.35496,-6.85435h-24.15341l-12.7295,62.0155h26.11179" data-paper-data="{&quot;elementType&quot;:&quot;letter&quot;,&quot;baseline&quot;:65.4,&quot;baselineProportion&quot;:1,&quot;fontSize&quot;:100}"></path><path d="M356.56875,308.19443c-5.87515,0 -10.55352,-1.90398 -14.03509,-5.71195c-3.48157,-3.80797 -5.22236,-8.64953 -5.22236,-14.52468c0,-3.48157 0.65279,-6.90874 1.95838,-10.28152c1.30559,-3.37277 3.20957,-6.36475 5.71195,-8.97593c2.50238,-2.61118 5.38556,-4.73276 8.64953,-6.36475c3.26397,-1.63199 6.85435,-2.44798 10.77111,-2.44798c5.87515,0 10.49912,1.95838 13.87189,5.87515c3.37277,3.91677 5.05916,8.81273 5.05916,14.68788c0,3.48157 -0.65279,6.90874 -1.95838,10.28152c-1.30559,3.37277 -3.10078,6.36475 -5.38556,8.97593c-2.28478,2.61118 -5.11356,4.67836 -8.48633,6.20155c-3.37277,1.52319 -7.01754,2.28478 -10.93431,2.28478z" data-paper-data="{&quot;elementType&quot;:&quot;letter&quot;,&quot;baseline&quot;:13.599999999999994,&quot;baselineProportion&quot;:0.9189189189189187,&quot;fontSize&quot;:100}"></path></g></g></g></svg>